<?xml version="1.0" encoding="UTF-8" standalone="no"?>
<svg
   xmlns:dc="http://purl.org/dc/elements/1.1/"
   xmlns:cc="http://creativecommons.org/ns#"
   xmlns:rdf="http://www.w3.org/1999/02/22-rdf-syntax-ns#"
   xmlns:svg="http://www.w3.org/2000/svg"
   xmlns="http://www.w3.org/2000/svg"
   xmlns:sodipodi="http://sodipodi.sourceforge.net/DTD/sodipodi-0.dtd"
   xmlns:inkscape="http://www.inkscape.org/namespaces/inkscape"
   version="1.1"
   id="Capa_1"
   x="0px"
   y="0px"
   width="511.626px"
   height="511.627px"
   viewBox="0 0 511.626 511.627"
   style="enable-background:new 0 0 511.626 511.627;"
   xml:space="preserve"
   sodipodi:docname="sort-desc.svg"
   inkscape:version="1.0.1 (0767f8302a, 2020-10-17)"><metadata
   id="metadata47"><rdf:RDF><cc:Work
       rdf:about=""><dc:format>image/svg+xml</dc:format><dc:type
         rdf:resource="http://purl.org/dc/dcmitype/StillImage" /></cc:Work></rdf:RDF></metadata><defs
   id="defs45">
	

		
		
		
	</defs><sodipodi:namedview
   pagecolor="#ffffff"
   bordercolor="#666666"
   borderopacity="1"
   objecttolerance="10"
   gridtolerance="10"
   guidetolerance="10"
   inkscape:pageopacity="0"
   inkscape:pageshadow="2"
   inkscape:window-width="1920"
   inkscape:window-height="1043"
   id="namedview43"
   showgrid="false"
   inkscape:zoom="0.85804695"
   inkscape:cx="374.74517"
   inkscape:cy="248.69492"
   inkscape:window-x="0"
   inkscape:window-y="0"
   inkscape:window-maximized="1"
   inkscape:current-layer="Capa_1"
   inkscape:document-rotation="0" />
<path
   d="m 32.284585,109.63 h 54.818 v 392.855 c 0,2.663 0.854,4.856 2.568,6.567 1.713,1.71 3.9,2.569 6.567,2.569 h 54.817995 c 2.663,0 4.856,-0.855 6.567,-2.568 1.709,-1.715 2.568,-3.905 2.568,-6.567 V 109.631 h 54.819 c 4.184,0 7.039,-1.902 8.563,-5.708 1.525,-3.621 0.856,-6.95 -1.997,-9.996 l -91.361,-91.365 c -2.096,-1.707 -4.281,-2.562 -6.567,-2.562 -2.474,0 -4.664,0.855 -6.567,2.562 L 26.004585,93.64 c -1.906,2.279 -2.856,4.571 -2.856,6.844 0,2.676 0.854,4.859 2.568,6.584 1.714,1.706 3.9,2.562 6.568,2.562 z"
   id="path2"
   style="fill:#808080" /><path
   d="m 468.475,481.361 -65.664,-189.01 h -46.25 L 290.9,481.364 h -19.98 v 30.263 h 81.934 v -30.266 h -21.412 l 13.418,-41.11 h 69.381 l 13.415,41.11 H 406.25 v 30.266 h 82.228 v -30.266 z m -114.197,-72.515 20.841,-62.242 c 0.76,-2.283 1.479,-5.045 2.143,-8.278 0.66,-3.234 0.996,-4.948 0.996,-5.137 l 0.855,-5.715 h 1.143 c 0,0.767 0.191,2.669 0.562,5.715 l 3.433,13.415 20.554,62.242 z"
   id="path4"
   style="fill:#808080" /><path
   d="M 463.055,152.745 H 428.518 V 186.72 H 357.71 c -4.001,0 -6.852,0.097 -8.556,0.288 l -4.004,0.854 v -0.854 l 3.142,-2.858 c 2.851,-3.422 4.853,-5.896 5.996,-7.421 L 459.632,25.41 V 0 H 297.754 v 65.387 h 34.259 V 32.552 h 66.232 c 3.426,0 6.283,-0.288 8.56,-0.859 0.571,0 1.286,-0.048 2.142,-0.144 0.855,-0.094 1.476,-0.144 1.854,-0.144 v 0.855 l -3.141,2.568 c -1.708,1.713 -3.71,4.283 -5.996,7.71 L 296.32,193.569 v 25.697 h 166.735 z"
   id="path6"
   style="fill:#808080" />
<g
   id="g12">
</g>
<g
   id="g14">
</g>
<g
   id="g16">
</g>
<g
   id="g18">
</g>
<g
   id="g20">
</g>
<g
   id="g22">
</g>
<g
   id="g24">
</g>
<g
   id="g26">
</g>
<g
   id="g28">
</g>
<g
   id="g30">
</g>
<g
   id="g32">
</g>
<g
   id="g34">
</g>
<g
   id="g36">
</g>
<g
   id="g38">
</g>
<g
   id="g40">
</g>
</svg>
