<?xml version="1.0" encoding="UTF-8" standalone="no"?>
<svg
   xmlns:dc="http://purl.org/dc/elements/1.1/"
   xmlns:cc="http://creativecommons.org/ns#"
   xmlns:rdf="http://www.w3.org/1999/02/22-rdf-syntax-ns#"
   xmlns:svg="http://www.w3.org/2000/svg"
   xmlns="http://www.w3.org/2000/svg"
   xmlns:sodipodi="http://sodipodi.sourceforge.net/DTD/sodipodi-0.dtd"
   xmlns:inkscape="http://www.inkscape.org/namespaces/inkscape"
   version="1.1"
   id="Capa_1"
   x="0px"
   y="0px"
   width="511.626px"
   height="511.627px"
   viewBox="0 0 511.626 511.627"
   style="enable-background:new 0 0 511.626 511.627;"
   xml:space="preserve"
   sodipodi:docname="sort-asc.svg"
   inkscape:version="1.0.1 (0767f8302a, 2020-10-17)"><metadata
   id="metadata47"><rdf:RDF><cc:Work
       rdf:about=""><dc:format>image/svg+xml</dc:format><dc:type
         rdf:resource="http://purl.org/dc/dcmitype/StillImage" /></cc:Work></rdf:RDF></metadata><defs
   id="defs45">
	

		
		
		
	</defs><sodipodi:namedview
   pagecolor="#ffffff"
   bordercolor="#666666"
   borderopacity="1"
   objecttolerance="10"
   gridtolerance="10"
   guidetolerance="10"
   inkscape:pageopacity="0"
   inkscape:pageshadow="2"
   inkscape:window-width="1920"
   inkscape:window-height="1043"
   id="namedview43"
   showgrid="false"
   inkscape:zoom="1.7160939"
   inkscape:cx="255.813"
   inkscape:cy="255.81351"
   inkscape:window-x="0"
   inkscape:window-y="0"
   inkscape:window-maximized="1"
   inkscape:current-layer="Capa_1" />
<path
   d="M 215.232,401.991 H 160.414 V 9.136 c 0,-2.663 -0.854,-4.856 -2.568,-6.567 C 156.133,0.859 153.946,0 151.279,0 H 96.461 C 93.798,0 91.605,0.855 89.894,2.568 88.185,4.283 87.326,6.473 87.326,9.135 V 401.99 H 32.507 c -4.184,0 -7.039,1.902 -8.563,5.708 -1.525,3.621 -0.856,6.95 1.997,9.996 l 91.361,91.365 c 2.096,1.707 4.281,2.562 6.567,2.562 2.474,0 4.664,-0.855 6.567,-2.562 l 91.076,-91.078 c 1.906,-2.279 2.856,-4.571 2.856,-6.844 0,-2.676 -0.854,-4.859 -2.568,-6.584 -1.714,-1.706 -3.9,-2.562 -6.568,-2.562 z"
   id="path2"
   style="fill:#808080" /><path
   d="m 428.511,479.082 h -70.808 c -3.997,0 -6.852,0.191 -8.559,0.568 l -4.001,0.571 v -0.571 l 3.142,-3.142 c 2.848,-3.419 4.853,-5.896 5.996,-7.409 L 459.625,317.768 V 292.362 H 297.744 v 65.377 h 34.263 v -32.832 h 66.236 c 3.422,0 6.283,-0.288 8.555,-0.855 0.572,0 1.287,-0.048 2.143,-0.145 0.853,-0.085 1.475,-0.144 1.852,-0.144 v 0.855 l -3.142,2.574 c -1.704,1.711 -3.713,4.273 -5.995,7.706 L 296.31,485.934 v 25.693 h 166.734 v -66.521 h -34.54 v 33.976 z"
   id="path4"
   style="fill:#808080" /><path
   d="M 468.475,189.008 402.807,0 h -46.25 l -65.664,189.008 h -19.979 v 30.264 h 81.933 v -30.264 h -21.409 l 13.419,-41.112 h 69.381 l 13.415,41.112 H 406.25 v 30.264 h 82.228 V 189.008 Z M 354.278,116.487 375.119,54.246 c 0.76,-2.285 1.479,-5.046 2.143,-8.28 0.66,-3.236 0.996,-4.949 0.996,-5.139 l 0.855,-5.708 h 1.143 c 0,0.761 0.191,2.664 0.562,5.708 l 3.433,13.418 20.554,62.241 h -50.527 z"
   id="path6"
   style="fill:#808080" />
<g
   id="g12">
</g>
<g
   id="g14">
</g>
<g
   id="g16">
</g>
<g
   id="g18">
</g>
<g
   id="g20">
</g>
<g
   id="g22">
</g>
<g
   id="g24">
</g>
<g
   id="g26">
</g>
<g
   id="g28">
</g>
<g
   id="g30">
</g>
<g
   id="g32">
</g>
<g
   id="g34">
</g>
<g
   id="g36">
</g>
<g
   id="g38">
</g>
<g
   id="g40">
</g>
</svg>
