<?xml version="1.0" encoding="UTF-8" standalone="no"?>
<svg
   xmlns:dc="http://purl.org/dc/elements/1.1/"
   xmlns:cc="http://creativecommons.org/ns#"
   xmlns:rdf="http://www.w3.org/1999/02/22-rdf-syntax-ns#"
   xmlns:svg="http://www.w3.org/2000/svg"
   xmlns="http://www.w3.org/2000/svg"
   xmlns:sodipodi="http://sodipodi.sourceforge.net/DTD/sodipodi-0.dtd"
   xmlns:inkscape="http://www.inkscape.org/namespaces/inkscape"
   version="1.1"
   id="Capa_1"
   x="0px"
   y="0px"
   width="511.626px"
   height="511.627px"
   viewBox="0 0 511.626 511.627"
   style="enable-background:new 0 0 511.626 511.627;"
   xml:space="preserve"
   sodipodi:docname="unsorted.svg"
   inkscape:version="1.0.1 (0767f8302a, 2020-10-17)"><metadata
   id="metadata47"><rdf:RDF><cc:Work
       rdf:about=""><dc:format>image/svg+xml</dc:format><dc:type
         rdf:resource="http://purl.org/dc/dcmitype/StillImage" /></cc:Work></rdf:RDF></metadata><defs
   id="defs45">
	

		
		
		
	</defs><sodipodi:namedview
   pagecolor="#ffffff"
   bordercolor="#666666"
   borderopacity="1"
   objecttolerance="10"
   gridtolerance="10"
   guidetolerance="10"
   inkscape:pageopacity="0"
   inkscape:pageshadow="2"
   inkscape:window-width="1920"
   inkscape:window-height="1043"
   id="namedview43"
   showgrid="false"
   inkscape:zoom="0.85804695"
   inkscape:cx="315.80637"
   inkscape:cy="330.91123"
   inkscape:window-x="0"
   inkscape:window-y="0"
   inkscape:window-maximized="1"
   inkscape:current-layer="Capa_1"
   inkscape:document-rotation="0" />
<path
   d="m 32.284585,109.63 h 54.818 v 392.855 c 0,2.663 0.854,4.856 2.568,6.567 1.713,1.71 3.9,2.569 6.567,2.569 h 54.817995 c 2.663,0 4.856,-0.855 6.567,-2.568 1.709,-1.715 2.568,-3.905 2.568,-6.567 V 109.631 h 54.819 c 4.184,0 7.039,-1.902 8.563,-5.708 1.525,-3.621 0.856,-6.95 -1.997,-9.996 l -91.361,-91.365 c -2.096,-1.707 -4.281,-2.562 -6.567,-2.562 -2.474,0 -4.664,0.855 -6.567,2.562 L 26.004585,93.64 c -1.906,2.279 -2.856,4.571 -2.856,6.844 0,2.676 0.854,4.859 2.568,6.584 1.714,1.706 3.9,2.562 6.568,2.562 z"
   id="path2"
   style="fill:#808080" />
<g
   id="g12">
</g>
<g
   id="g14">
</g>
<g
   id="g16">
</g>
<g
   id="g18">
</g>
<g
   id="g20">
</g>
<g
   id="g22">
</g>
<g
   id="g24">
</g>
<g
   id="g26">
</g>
<g
   id="g28">
</g>
<g
   id="g30">
</g>
<g
   id="g32">
</g>
<g
   id="g34">
</g>
<g
   id="g36">
</g>
<g
   id="g38">
</g>
<g
   id="g40">
</g>
<path
   d="m 471.08535,401.97308 h -54.818 V 9.1180791 c 0,-2.6629998 -0.854,-4.8559998 -2.568,-6.5669998 -1.713,-1.71000004 -3.9,-2.56900004 -6.567,-2.56900004 h -54.81799 c -2.663,0 -4.856,0.855 -6.567,2.56800004 -1.709,1.715 -2.56801,3.905 -2.56801,6.5669998 V 401.97208 h -54.819 c -4.184,0 -7.039,1.902 -8.563,5.708 -1.525,3.621 -0.856,6.95 1.99701,9.996 l 91.36099,91.365 c 2.096,1.707 4.281,2.562 6.567,2.562 2.47401,0 4.66401,-0.855 6.56701,-2.562 l 91.07599,-91.078 c 1.906,-2.279 2.856,-4.571 2.856,-6.844 0,-2.676 -0.854,-4.859 -2.568,-6.584 -1.714,-1.706 -3.9,-2.562 -6.568,-2.562 z"
   id="path2-3"
   style="fill:#808080" /></svg>
